<?xml version="1.0" encoding="UTF-8" standalone="no"?>
<svg
   width="157.50935"
   height="33.69313"
   version="1.1"
   viewBox="0 0 41.674312 8.9146326"
   id="svg28"
   sodipodi:docname="dt_text.svg"
   inkscape:version="1.2 (dc2aedaf03, 2022-05-15)"
   xmlns:inkscape="http://www.inkscape.org/namespaces/inkscape"
   xmlns:sodipodi="http://sodipodi.sourceforge.net/DTD/sodipodi-0.dtd"
   xmlns="http://www.w3.org/2000/svg"
   xmlns:svg="http://www.w3.org/2000/svg"
   xmlns:rdf="http://www.w3.org/1999/02/22-rdf-syntax-ns#"
   xmlns:cc="http://creativecommons.org/ns#"
   xmlns:dc="http://purl.org/dc/elements/1.1/">
  <defs
     id="defs32" />
  <sodipodi:namedview
     id="namedview30"
     pagecolor="#ffffff"
     bordercolor="#666666"
     borderopacity="1.0"
     inkscape:showpageshadow="2"
     inkscape:pageopacity="0.0"
     inkscape:pagecheckerboard="0"
     inkscape:deskcolor="#d1d1d1"
     showgrid="false"
     showguides="false"
     inkscape:zoom="5.4870608"
     inkscape:cx="66.975747"
     inkscape:cy="1.0934816"
     inkscape:window-width="1880"
     inkscape:window-height="1047"
     inkscape:window-x="40"
     inkscape:window-y="0"
     inkscape:window-maximized="1"
     inkscape:current-layer="svg28">
    <sodipodi:guide
       position="17.93397,4.6766281"
       orientation="0,-1"
       id="guide423"
       inkscape:locked="false" />
    <sodipodi:guide
       position="22.025524,1.6079604"
       orientation="0,-1"
       id="guide481"
       inkscape:locked="false" />
  </sodipodi:namedview>
  <metadata
     id="metadata2">
    <rdf:RDF>
      <cc:Work
         rdf:about="">
        <dc:format>image/svg+xml</dc:format>
        <dc:type
           rdf:resource="http://purl.org/dc/dcmitype/StillImage" />
      </cc:Work>
    </rdf:RDF>
  </metadata>
  <g
     aria-label="Darkt"
     id="text257"
     style="font-size:8.06083px;line-height:125%;-inkscape-font-specification:sans-serif;text-align:center;letter-spacing:0px;word-spacing:0px;text-anchor:middle;fill:#cccccc;stroke-width:0.403041px">
    <path
       d="M 9.7663535,6.4432088 C 9.742171,5.7822208 9.7341102,5.4114226 9.7341102,4.7423737 c 0,-0.6690489 0.016122,-1.0640296 0.032243,-1.7411393 0.016122,-0.4997715 0,-0.7254747 0.7415965,-0.7254747 1.741139,0 2.377945,1.515436 2.377945,2.7568039 0,1.6282877 -1.039847,2.13612 -2.176424,2.13612 -0.87057,0 -0.9269958,-0.2257033 -0.9431175,-0.7254748 z M 9.411677,2.1226039 c -0.4030415,0 -0.6287447,-0.032243 -1.0317862,-0.040304 -0.048365,0.048365 -0.048365,0.1370341 0,0.185399 0.5642581,0.024183 0.6771097,0.064487 0.6932313,0.7335356 0.016122,0.6690489 0.032243,1.0640296 0.032243,1.7330785 0,0.6690489 -0.016122,1.0398471 -0.032243,1.7088959 -0.016122,0.6690489 -0.1289732,0.7093531 -0.6932313,0.7335356 -0.048365,0.048365 -0.048365,0.1370341 0,0.1853991 0.3949806,-0.00806 0.6368055,-0.040304 1.0479079,-0.040304 0.2901899,0 0.7012923,0.040304 1.5315573,0.040304 1.136577,0 2.652013,-0.5400756 2.652013,-2.5230398 0,-1.4993144 -1.249428,-2.7568039 -2.797108,-2.7568039 -0.548136,0 -1.0962724,0.040304 -1.402584,0.040304 z"
       style="font-family:'Linux Libertine Display O';-inkscape-font-specification:'Linux Libertine Display O'"
       id="path651" />
    <path
       d="m 16.30368,5.6129433 -0.04031,0.9431172 c -0.0081,0.09673 -0.0403,0.1450949 -0.10479,0.1934599 -0.201521,0.1612166 -0.475589,0.4111023 -0.693232,0.4111023 -0.38692,0 -0.596501,-0.3385548 -0.596501,-0.5803797 0,-0.2982508 0.19346,-0.6609881 0.77384,-0.806083 z m -0.04031,1.3380978 c 0.04837,0.1612166 0.169278,0.4514065 0.58038,0.4514065 0.378859,0 0.652927,-0.3063115 0.652927,-0.3466157 0,-0.056426 -0.08061,-0.1047908 -0.112851,-0.1047908 -0.04837,0 -0.07255,0.1289733 -0.233764,0.1289733 -0.298251,0 -0.338555,-0.2418249 -0.322433,-0.6851705 l 0.0403,-1.1446379 c 0.03224,-1.0720904 -0.532015,-1.3058545 -1.096273,-1.3058545 -0.628745,0 -1.305855,0.4030415 -1.305855,0.8141439 0,0.185399 0.128974,0.3143723 0.306312,0.3143723 0.225703,0 0.354676,-0.2015207 0.354676,-0.2982507 0,-0.056426 -0.0081,-0.1047908 -0.02418,-0.1370341 -0.0081,-0.024183 -0.01612,-0.072547 -0.01612,-0.1531558 0,-0.2418249 0.330494,-0.3627373 0.620684,-0.3627373 0.257947,0 0.604562,0.2095816 0.604562,1.0801512 0,0.056426 -0.01612,0.1612166 -0.0403,0.1692774 L 15.545962,5.532335 c -0.749658,0.1692775 -1.265551,0.5561973 -1.265551,1.0801513 0,0.5884406 0.419163,0.7899613 0.959239,0.7899613 0.354677,0 0.515893,-0.072547 0.854448,-0.330494 l 0.153156,-0.1209125 z"
       style="font-family:'Linux Libertine Display O';-inkscape-font-specification:'Linux Libertine Display O'"
       id="path653" />
    <path
       d="m 18.415621,4.8068603 c 0.01612,0.4111024 0.01612,1.2736112 0,1.6766527 -0.03224,0.6368056 -0.08867,0.6529272 -0.564258,0.6932314 -0.04837,0.048365 -0.04837,0.1370341 0,0.1853991 0.241825,-0.016122 0.604562,-0.040304 0.846387,-0.040304 0.233764,0 0.644866,0.024183 0.910874,0.040304 0.04837,-0.048365 0.04837,-0.1370341 0,-0.1853991 -0.540076,-0.048365 -0.604562,-0.056426 -0.628745,-0.6932314 -0.01612,-0.4030415 -0.0081,-1.0156646 0,-1.1688204 0.0081,-0.2015207 0.104791,-0.4191631 0.185399,-0.5561972 0.07255,-0.1209125 0.266008,-0.4111024 0.354677,-0.4111024 0.05643,0 0.120912,0.016122 0.153155,0.072547 0.05643,0.1047908 0.161217,0.2498857 0.322434,0.2498857 0.185399,0 0.362737,-0.1612166 0.362737,-0.3546765 0,-0.1450949 -0.08867,-0.3707982 -0.467528,-0.3707982 -0.298251,0 -0.596502,0.2579466 -0.854448,0.6448664 -0.05643,0.080608 -0.06449,-0.032243 -0.06449,-0.072547 0,-0.2498858 -0.0081,-0.4917107 -0.02418,-0.5400757 -0.01612,-0.024182 -0.03224,-0.048365 -0.09673,-0.048365 -0.217643,0.080608 -0.419163,0.1450949 -0.951178,0.2176424 -0.01612,0.048365 -0.01612,0.088669 0.01612,0.1370341 0.411103,0.040304 0.48365,0.1047908 0.499772,0.5239539 z"
       style="font-family:'Linux Libertine Display O';-inkscape-font-specification:'Linux Libertine Display O'"
       id="path655" />
    <path
       d="m 21.132123,6.4915738 c -0.01612,0.6368056 -0.08867,0.6609881 -0.556197,0.6851706 -0.05643,0.056426 -0.04837,0.1450949 0,0.1853991 0.322433,-0.00806 0.515893,-0.040304 0.846387,-0.040304 0.330494,0 0.523954,0.032243 0.854448,0.040304 0.0403,-0.040304 0.04837,-0.1289733 0,-0.1853991 -0.467528,-0.024182 -0.540075,-0.048365 -0.556197,-0.6851706 -0.0081,-0.1531557 -0.01612,-0.4352848 -0.01612,-0.7819005 0.38692,0.00806 0.515893,0.072547 0.693232,0.2982507 l 0.556197,0.7496572 c 0.217642,0.2982507 0.266007,0.4514065 0.298251,0.5642581 0.0081,0.024183 0.0081,0.040304 0.03224,0.040304 0.120912,-0.016122 0.314372,-0.040304 0.427224,-0.040304 0.120912,0 0.48365,0.024183 0.636805,0.040304 0.04837,-0.048365 0.04837,-0.1370341 0,-0.1853991 C 24.090448,7.1445011 23.888927,7.0155278 23.687406,6.7575812 L 22.671742,5.4839701 c -0.02418,-0.032243 -0.05643,-0.064487 -0.05643,-0.1047908 0,-0.032243 0,-0.048365 0.03224,-0.080608 l 0.67711,-0.6932314 c 0.233764,-0.2498858 0.499772,-0.4030415 0.806083,-0.4352848 0.04837,-0.048365 0.04837,-0.1370342 0,-0.1853991 -0.282129,0.00806 -0.394981,0.040304 -0.669049,0.040304 -0.29019,0 -0.475589,-0.032243 -0.757718,-0.040304 -0.04837,0.048365 -0.04837,0.1370341 0,0.1853991 0.427224,0.032243 0.330494,0.3949806 0.257947,0.4836498 -0.177339,0.2257032 -0.419163,0.4836498 -0.612623,0.6287447 -0.177339,0.1289733 -0.499772,0.2257033 -0.644867,0.2418249 -0.0081,-0.2579465 -0.0081,-0.5561973 -0.0081,-0.854448 0,-0.8866913 0.01612,-1.8217476 0.02418,-2.1764241 0.0081,-0.4997715 0.03224,-0.7254747 0.03224,-0.7254747 0,-0.056426 -0.03224,-0.072547 -0.104791,-0.072547 -0.19346,0.080608 -0.725474,0.1773383 -1.031786,0.2015208 -0.01612,0.064487 -0.02418,0.1047908 0.02418,0.1531557 0.403041,0.024183 0.459467,0.064487 0.49171,0.6287448 0.0081,0.3143724 0.01612,1.0398471 0.01612,1.7814434 0,0.8383264 -0.0081,1.7008352 -0.01612,2.0313292 z"
       style="font-family:'Linux Libertine Display O';-inkscape-font-specification:'Linux Libertine Display O'"
       id="path657" />
    <path
       d="m 24.80786,4.0249598 c -0.10479,0 -0.137034,0.048365 -0.137034,0.1128516 v 0.072547 c 0,0.040304 0.0081,0.048365 0.0403,0.048365 h 0.451407 c 0,0.7657788 -0.0403,1.8942951 -0.0403,2.3779449 0,0.5481364 0.185399,0.7657788 0.540075,0.7657788 0.354677,0 0.741597,-0.1692774 1.039847,-0.5078323 -0.01612,-0.080608 -0.03224,-0.09673 -0.08061,-0.1128516 -0.201521,0.1531558 -0.48365,0.2740682 -0.68517,0.2740682 -0.209582,0 -0.241825,-0.233764 -0.257947,-0.709353 -0.01612,-0.4030415 0.0081,-1.3703411 0.0403,-2.087755 h 0.798022 c 0.08061,0 0.185399,-0.024182 0.185399,-0.09673 v -0.088669 c 0,-0.032243 -0.01612,-0.048365 -0.05643,-0.048365 h -0.926996 l 0.0081,-0.4594673 c 0.0081,-0.4997715 0.03224,-0.806083 0.03224,-0.806083 0,-0.048365 -0.02418,-0.072547 -0.05643,-0.072547 -0.05642,0 -0.177338,0.088669 -0.29825,0.1370341 -0.128974,0.056426 -0.266008,0.064487 -0.266008,0.145095 0,0.088669 0.02418,0.2015207 0.02418,1.0559687 z"
       style="font-family:'Linux Libertine Display O';-inkscape-font-specification:'Linux Libertine Display O'"
       id="path659" />
  </g>
  <g
     transform="matrix(0.25505194,0,0,0.186711,-8.2820986,-71.235695)"
     id="g3773">
    <path
       style="opacity:1;fill:#a60d2c;fill-opacity:1;stroke:none;stroke-width:0.1;stroke-linecap:round;stroke-linejoin:round;stroke-miterlimit:4;stroke-dasharray:0.3, 0.3;stroke-dashoffset:0;stroke-opacity:1"
       id="path3769"
       d="m 145.46726,419.50762 c 0.2967,-1.09923 0.25368,-2.21892 0.10281,-3.33479 -0.25809,-1.35201 -0.76621,-2.68704 -1.64326,-3.7655 -0.16995,-0.20897 -0.36925,-0.39226 -0.55387,-0.58838 -0.20286,-0.14751 -0.3902,-0.31913 -0.60856,-0.44252 -0.20013,-0.1131 -0.41436,-0.20857 -0.63797,-0.26187 -0.21137,-0.0504 -0.43473,-0.0725 -0.65029,-0.0452 -0.48206,0.0611 -0.91832,0.32819 -1.23586,0.68795 -0.0343,0.0388 0.0294,0.0993 0.044,0.14892 -0.15669,0.33304 -0.34244,0.65388 -0.47006,0.9991 -0.69271,1.87379 -0.76392,3.99414 -0.6356,5.96487 0.0379,0.58243 0.12188,1.16096 0.18282,1.74144 0.42327,2.35147 0.94519,5.0606 2.64411,6.87713 0.23043,0.24638 0.51638,0.43424 0.77456,0.65136 0.27071,0.11355 0.52543,0.2775 0.81212,0.34065 0.97581,0.21495 1.80357,-0.27567 2.52522,-0.86745 0.0569,-0.0466 0.0755,-0.12636 0.11599,-0.18781 0.2605,-0.39548 0.52458,-0.78858 0.78687,-1.18287 0.24182,-0.49946 0.51241,-0.98598 0.72546,-1.49838 0.52739,-1.26837 0.91467,-2.62392 1.23879,-3.95457 0.64741,-2.65783 1.05204,-5.3642 1.47778,-8.06339 0.81842,-6.00389 1.5242,-12.02079 2.44812,-18.01 0.55342,-3.48116 1.23101,-6.94097 2.01393,-10.37737 0.17403,-0.67533 0.55239,-2.90772 1.60705,-2.80642 0.0575,0.0534 0.12896,0.0949 0.17261,0.16013 0.5325,0.79559 0.3907,3.2075 0.36994,4.0487 -0.38284,5.45288 -0.81941,10.90067 -1.14269,16.35798 -0.34745,5.93607 -0.54359,11.87916 -0.35708,17.82352 0.0922,1.87849 0.20686,3.76233 0.51795,5.61984 0.10824,0.64627 0.27118,1.49873 0.54362,2.12238 0.0823,0.18829 0.2159,0.34966 0.32385,0.52449 0.41316,0.29599 0.18744,0.25522 0.67673,0.12461 0.002,0.002 -0.0225,0.0337 -0.0247,0.0319 v 0 c -0.85464,0.55938 -0.4036,0.40125 -1.33394,0.5259 -0.1864,-0.11739 -0.40969,-0.1904 -0.5592,-0.35218 -0.43698,-0.47286 -0.6991,-1.32461 -0.84432,-1.90187 -0.45358,-1.80296 -0.53443,-3.67975 -0.66218,-5.5241 -0.19395,-5.95799 -0.0142,-11.91668 0.37923,-17.86444 0.36594,-5.51841 0.86809,-11.02388 1.35423,-16.53254 0.0727,-1.19859 0.10746,-1.5154 0.12543,-2.63044 0.009,-0.56517 0.0571,-1.2272 -0.22833,-1.74332 -0.32501,-0.0347 -0.24776,-0.005 0.45779,-0.58063 0.0777,-0.0634 -0.11147,0.16779 -0.15384,0.25875 -0.26247,0.56333 -0.37368,1.18817 -0.54034,1.78138 -0.78356,3.42556 -1.41198,6.88609 -1.99208,10.35114 -0.92475,5.98252 -1.6443,11.99144 -2.42853,17.99344 -0.57436,3.95562 -1.11291,8.26563 -2.63609,11.99057 -0.21081,0.51555 -0.47806,1.00618 -0.71709,1.50927 -0.26047,0.40003 -0.4761,0.83314 -0.78142,1.20008 -0.95346,1.14589 -2.39726,2.80751 -4.13066,2.3786 -0.29319,-0.0725 -0.55284,-0.24347 -0.82925,-0.36521 -0.2614,-0.22407 -0.55093,-0.41898 -0.78418,-0.67222 -1.70023,-1.84593 -2.2317,-4.57218 -2.64003,-6.95131 -0.28454,-2.98771 -0.45128,-6.03861 0.93702,-8.80075 0.43364,-0.50759 1.05919,-1.44333 1.76813,-1.80125 0.93708,-0.47309 1.87484,0.003 2.60122,0.60732 0.18733,0.19887 0.38836,0.38568 0.56197,0.59663 0.8926,1.08459 1.39564,2.42088 1.68841,3.77954 0.16903,1.12365 0.22359,2.25635 -0.0856,3.36437 0.0385,0.0474 -0.63225,0.59225 -0.67077,0.54482 z"
       inkscape:connector-curvature="0" />
    <path
       style="opacity:1;fill:#a60d2c;fill-opacity:1;stroke:none;stroke-width:0.1;stroke-linecap:round;stroke-linejoin:round;stroke-miterlimit:4;stroke-dasharray:0.3, 0.3;stroke-dashoffset:0;stroke-opacity:1"
       id="path3771"
       d="m 150.01889,406.54121 c -0.8571,0.28519 -1.7377,0.4371 -2.63982,0.39977 -1.00818,-0.12575 -1.5836,-0.64044 -2.10613,-1.47167 -0.30221,-0.62274 -0.59295,-1.42251 -0.20408,-2.08198 0.0746,-0.12657 0.18724,-0.22648 0.28086,-0.33971 0.45352,-0.38596 0.86841,-0.82255 1.36055,-1.15787 0.24293,-0.16553 1.14333,-0.28431 1.38291,-0.3055 0.95354,-0.0843 1.9177,-0.004 2.86983,0.0504 1.72836,0.1073 3.4809,0.32539 5.20547,0.0458 0.30457,-0.0494 0.60295,-0.1314 0.90443,-0.1971 0.66978,-0.22837 0.91296,-0.2707 1.51473,-0.62835 0.20575,-0.12229 0.36747,-0.31742 0.5861,-0.41485 0.11627,-0.0518 -0.34392,0.37439 -0.26728,0.27276 0.38684,-0.51295 0.81872,-0.99049 1.21616,-1.49527 0.09,-0.18184 0.17995,-0.36369 0.26992,-0.54553 -0.002,-0.002 0.0301,-0.0271 0.0319,-0.0248 v 0 c -0.0899,0.18192 -0.17982,0.36385 -0.26973,0.54577 -0.0251,0.13005 -0.0224,0.26872 -0.0754,0.39014 -0.0794,0.18219 -0.18292,0.35774 -0.31514,0.50611 -1.05894,1.18828 -2.1179,2.15803 -3.66801,2.58708 -0.306,0.0628 -0.60913,0.14175 -0.91801,0.18842 -1.71983,0.25985 -3.46319,0.0349 -5.18092,-0.11563 -0.92666,-0.079 -1.85578,-0.17271 -2.78693,-0.10169 -0.24071,0.0184 -0.48179,0.0452 -0.71791,0.0954 -0.19596,0.0417 -0.52816,0.37461 -0.57364,0.17949 -0.0597,-0.25598 0.31164,-0.42336 0.46746,-0.63504 -0.10582,0.10478 -0.22951,0.19418 -0.31746,0.31435 -0.44738,0.61125 -0.18598,1.39954 0.10237,2.00975 0.49619,0.81218 1.02723,1.29585 2.01001,1.39674 0.86974,0.0233 1.72545,-0.1066 2.55802,-0.36261 0.0633,0.0509 -0.65697,0.94645 -0.7203,0.89551 z"
       inkscape:connector-curvature="0" />
  </g>
  <text
     xml:space="preserve"
     style="font-size:10.5835px;line-height:125%;font-family:sans-serif;-inkscape-font-specification:sans-serif;text-align:center;letter-spacing:0px;word-spacing:0px;writing-mode:lr-tb;text-anchor:middle;fill:none;stroke:#000000;stroke-width:0.264587px;stroke-linecap:butt;stroke-linejoin:miter;stroke-opacity:1"
     x="22.434828"
     y="2.2093041"
     id="text382"><tspan
       sodipodi:role="line"
       id="tspan380"
       style="stroke-width:0.264587px"
       x="22.434828"
       y="2.2093041"></tspan></text>
  <g
     aria-label="ble"
     id="text257-3"
     style="font-size:8.06083px;line-height:125%;-inkscape-font-specification:sans-serif;text-align:center;letter-spacing:0px;word-spacing:0px;text-anchor:middle;fill:#cccccc;stroke:#000000;stroke-width:0.403041px">
    <path
       d="m 33.968153,4.2501541 c 0.201521,-0.1773383 0.427224,-0.2498857 0.652927,-0.2498857 0.225703,0 0.467528,0.1370341 0.628745,0.378859 0.177338,0.2579466 0.274068,0.6368056 0.274068,1.0156646 0,0.8786305 -0.403041,1.6202268 -1.136577,1.6202268 -0.241825,0 -0.394981,-0.1692774 -0.548136,-0.3627373 -0.01612,-0.4030415 -0.01612,-2.0796942 -0.01612,-2.0796942 0,-0.1612166 0.04836,-0.2337641 0.145095,-0.3224332 z m -0.05643,-0.1612166 c -0.04836,0.040304 -0.08867,0.040304 -0.08867,-0.032243 0,0 0,-1.3622803 0.01612,-1.7653218 0.01612,-0.4997715 0.02418,-0.7254747 0.02418,-0.7254747 0,-0.056426 -0.02418,-0.072547 -0.09673,-0.072547 -0.19346,0.080608 -0.733535,0.1773383 -1.039847,0.2015208 -0.01612,0.064487 -0.0081,0.1047908 0.0403,0.1531557 0.403042,0.024182 0.467528,0.080608 0.491711,0.6287448 0.01612,0.4030415 0.0081,3.6918602 -0.0081,4.0949017 -0.01612,0.2982507 -0.08061,0.4433456 -0.104791,0.5481364 0.0403,0.064487 0.03224,0.088669 0.120913,0.088669 0.04837,-0.040304 0.19346,-0.145095 0.249885,-0.2176425 0.08061,-0.088669 0.128974,-0.09673 0.209582,-0.024182 0.177338,0.1450949 0.435285,0.233764 0.709353,0.233764 0.7819,0 1.700835,-0.7174139 1.700835,-1.94266 0,-0.9350563 -0.693231,-1.5154361 -1.36228,-1.5154361 -0.330494,0 -0.620684,0.1289733 -0.862509,0.3466157 z"
       style="font-family:'Linux Libertine Display O';-inkscape-font-specification:'Linux Libertine Display O';stroke:none"
       id="path662" />
    <path
       d="m 37.176369,6.2895441 c -0.01612,0.6368056 -0.08867,0.6609881 -0.556198,0.6851706 -0.05642,0.056426 -0.04836,0.1450949 0,0.1853991 0.322434,-0.00806 0.515893,-0.040304 0.846387,-0.040304 0.330495,0 0.523954,0.032243 0.854448,0.040304 0.04031,-0.040304 0.04837,-0.1289733 0,-0.1853991 -0.467528,-0.024183 -0.540075,-0.048365 -0.556197,-0.6851706 -0.0081,-0.2982507 -0.02418,-1.0398471 -0.02418,-1.8217476 0,-0.8866913 0.01612,-1.8217476 0.02418,-2.1764241 0.0081,-0.4997715 0.03224,-0.7254747 0.03224,-0.7254747 0,-0.056426 -0.03224,-0.072547 -0.104791,-0.072547 -0.19346,0.080608 -0.725475,0.1773383 -1.031787,0.2015208 -0.01612,0.064487 -0.02418,0.1047908 0.02418,0.1531557 0.403041,0.024182 0.459467,0.064487 0.491711,0.6287448 0.0081,0.3143724 0.01612,1.0398471 0.01612,1.7814434 0,0.8383264 -0.0081,1.7008352 -0.01612,2.0313292 z"
       style="font-family:'Linux Libertine Display O';-inkscape-font-specification:'Linux Libertine Display O';stroke:none"
       id="path664" />
    <path
       d="m 39.385038,5.0320546 c 0.145095,-0.8705696 0.652927,-1.1043337 0.943117,-1.1043337 0.370798,0 0.725475,0.3143724 0.725475,0.9592388 0,0.072547 -0.03224,0.1047908 -0.112852,0.1047908 z m 2.128059,1.3703411 c -0.282129,0.2901899 -0.548137,0.4997715 -0.991482,0.4997715 -0.274068,0 -0.67711,-0.1612166 -0.918935,-0.5561973 C 39.449524,6.0960842 39.360855,5.7091644 39.360855,5.2658187 l 2.160303,-0.032243 c 0.08867,0 0.145095,-0.056426 0.145095,-0.1370341 0,-0.6448664 -0.266008,-1.3542195 -1.338098,-1.3542195 -0.733536,0 -1.579923,0.6529272 -1.579923,1.8217476 0,0.427224 0.112852,0.854448 0.362738,1.1446379 0.257946,0.3063115 0.660988,0.4917106 1.217185,0.4917106 0.58038,0 1.039847,-0.2660074 1.346159,-0.6690489 -0.02418,-0.080608 -0.07255,-0.1209124 -0.161217,-0.1289733 z"
       style="font-family:'Linux Libertine Display O';-inkscape-font-specification:'Linux Libertine Display O';stroke:none"
       id="path666" />
  </g>
  <g
     aria-label="&amp;"
     id="text257-0"
     style="font-size:5.52407px;line-height:125%;-inkscape-font-specification:sans-serif;text-align:center;letter-spacing:0px;word-spacing:0px;text-anchor:middle;fill:#cccccc;stroke-width:0.276203px">
    <path
       d="M 6.0334259,5.0085906 C 6.0941906,5.1245961 6.5526884,5.7653882 6.8675604,6.1796934 6.596881,6.5498061 6.3814423,6.7928652 5.9892333,6.7928652 c -0.2706794,0 -0.6463162,-0.2154387 -0.6463162,-0.7347013 0,-0.392209 0.1270536,-0.7181291 0.6905088,-1.0495733 z m 0.9390918,1.3313009 0.1657221,0.2209627 c 0.2651554,0.3590646 0.4640219,0.3701127 0.6352681,0.3701127 0.1546739,0 0.403257,-0.1546739 0.5689791,-0.5413588 -0.033144,-0.02762 -0.055241,-0.055241 -0.1160054,-0.055241 -0.1104814,0.2154387 -0.2541072,0.3259201 -0.4087812,0.3259201 -0.088385,0 -0.2430591,-0.093909 -0.4364015,-0.3756367 L 7.1769083,5.9918751 C 7.392347,5.6770031 7.5083525,5.4726125 7.6575024,5.2074571 7.9116096,4.7544834 7.944754,4.7379112 8.2872463,4.7158149 c 0.033145,-0.033144 0.033145,-0.093909 0,-0.1270536 -0.1104814,0.00552 -0.2762034,0.02762 -0.4640218,0.02762 -0.1878184,0 -0.397733,-0.022096 -0.5082144,-0.02762 -0.033145,0.033145 -0.033145,0.093909 0,0.1270536 0.2982997,0.016572 0.397733,0.033145 0.1878183,0.4198293 C 7.4089192,5.3124145 7.2763416,5.5499495 7.0774751,5.8427252 6.8012716,5.4726125 6.4808755,5.036211 6.3648701,4.8262963 6.9504215,4.5003762 7.1879565,4.0971191 7.1879565,3.8430119 c 0,-0.3480164 -0.3203961,-0.5413588 -0.707081,-0.5413588 -0.552407,0 -0.8507067,0.3922089 -0.8507067,0.718129 0,0.2099147 0.093909,0.4916423 0.3038238,0.8341346 -0.7291772,0.3756367 -1.0440492,0.7236531 -1.0440492,1.1600546 0,0.6131718 0.5303107,0.9169956 1.0606214,0.9169956 0.469546,0 0.7678457,-0.243059 1.0219529,-0.5910754 z M 6.2709609,4.6716224 C 6.1107628,4.406467 6.0389499,4.0915951 6.0389499,3.9645414 c 0,-0.3645886 0.2043906,-0.5247866 0.4143053,-0.5247866 0.2264868,0 0.3535404,0.1657221 0.3535404,0.4143053 0,0.1988665 -0.1822943,0.5855513 -0.5358347,0.8175623 z"
       style="font-family:'Linux Libertine Display O';-inkscape-font-specification:'Linux Libertine Display O'"
       id="path648" />
  </g>
  <g
     aria-label="R"
     id="text257-5"
     style="font-size:8.06083px;line-height:125%;-inkscape-font-specification:sans-serif;text-align:center;letter-spacing:0px;word-spacing:0px;text-anchor:middle;fill:#cccccc;stroke-width:0.403041px">
    <path
       d="m 1.3824324,4.9118136 c 0.1773383,0.056426 0.4111023,0.048365 0.6851706,0.048365 0.2660073,0 0.3063115,0.088669 0.4191631,0.2740682 l 0.8625088,1.4025844 c 0.2337641,0.3788591 0.6045623,0.7174139 1.0882121,0.7174139 0.1209125,0 0.3385549,-0.016122 0.4191632,-0.056426 0.024183,-0.056426 0.024183,-0.048365 -0.00806,-0.1128516 -0.3627373,0 -0.6690489,-0.2740682 -0.8786304,-0.6206839 L 2.9623551,4.8070228 C 3.7120123,4.5168329 3.9538372,3.8719665 3.9538372,3.3560734 c 0,-0.475589 -0.2982507,-1.3622803 -1.7895043,-1.3622803 -0.2095816,0 -0.7738397,0.080608 -1.0962729,0.080608 -0.40304149,0 -0.62874473,-0.032243 -1.03178624,-0.040304 -0.04836498,0.048365 -0.04836498,0.1370342 0,0.1853991 0.56425811,0.024183 0.68517056,0.064487 0.69323139,0.7335356 0.008061,0.6690489 0.0161217,1.0640296 0.0161217,1.7330785 0,0.6690489 -0.008061,1.088212 -0.0161217,1.7572609 -0.008061,0.6368056 -0.12897328,0.6609881 -0.69323139,0.6851706 -0.04836498,0.048365 -0.04836498,0.1370341 0,0.1853991 0.39498068,-0.00806 0.63680558,-0.040304 1.04790794,-0.040304 0.4514065,0 0.6932314,0.032243 1.0962729,0.040304 0.048365,-0.048365 0.048365,-0.1370341 0,-0.1853991 C 1.6242573,7.0962986 1.4066149,7.0559944 1.3985541,6.5884663 1.3904932,5.983904 1.3824324,5.4921934 1.3824324,4.9118136 Z M 1.3985541,2.5741729 C 1.4066149,2.3404088 1.5355882,2.187253 2.1159679,2.187253 c 0.5561973,0 1.1285162,0.2901899 1.1285162,1.3139153 0,0.8705697 -0.4433456,1.2655504 -1.2252461,1.2655504 -0.19346,0 -0.5320148,-0.016122 -0.6368056,-0.040304 v -0.040304 c 0,-0.6690489 0.00806,-1.4428886 0.016122,-2.1119375 z"
       style="font-family:'Linux Libertine Display O';-inkscape-font-specification:'Linux Libertine Display O'"
       id="path645" />
  </g>
</svg>
