<?xml version="1.0" encoding="UTF-8" standalone="no"?>
<svg
   width="78.758759"
   height="33.69313"
   version="1.1"
   viewBox="0 0 20.838236 8.9146326"
   id="svg28"
   sodipodi:docname="dt_text.svg"
   inkscape:version="1.2.1 (9c6d41e410, 2022-07-14)"
   xmlns:inkscape="http://www.inkscape.org/namespaces/inkscape"
   xmlns:sodipodi="http://sodipodi.sourceforge.net/DTD/sodipodi-0.dtd"
   xmlns="http://www.w3.org/2000/svg"
   xmlns:svg="http://www.w3.org/2000/svg"
   xmlns:rdf="http://www.w3.org/1999/02/22-rdf-syntax-ns#"
   xmlns:cc="http://creativecommons.org/ns#"
   xmlns:dc="http://purl.org/dc/elements/1.1/">
  <defs
     id="defs32" />
  <sodipodi:namedview
     id="namedview30"
     pagecolor="#ffffff"
     bordercolor="#666666"
     borderopacity="1.0"
     inkscape:showpageshadow="2"
     inkscape:pageopacity="0.0"
     inkscape:pagecheckerboard="0"
     inkscape:deskcolor="#d1d1d1"
     showgrid="false"
     showguides="false"
     inkscape:zoom="3.8799379"
     inkscape:cx="23.453984"
     inkscape:cy="1.2886804"
     inkscape:window-width="1874"
     inkscape:window-height="1047"
     inkscape:window-x="46"
     inkscape:window-y="0"
     inkscape:window-maximized="1"
     inkscape:current-layer="svg28">
    <sodipodi:guide
       position="-9.1015324,4.676628"
       orientation="0,-1"
       id="guide423"
       inkscape:locked="false" />
    <sodipodi:guide
       position="-5.0099783,1.6079603"
       orientation="0,-1"
       id="guide481"
       inkscape:locked="false" />
  </sodipodi:namedview>
  <metadata
     id="metadata2">
    <rdf:RDF>
      <cc:Work
         rdf:about="">
        <dc:format>image/svg+xml</dc:format>
        <dc:type
           rdf:resource="http://purl.org/dc/dcmitype/StillImage" />
      </cc:Work>
    </rdf:RDF>
  </metadata>
  <g
     aria-label="nsel"
     id="text335"
     style="font-size:9.52499px;line-height:125%;-inkscape-font-specification:sans-serif;text-align:center;letter-spacing:0px;word-spacing:0px;text-anchor:middle;fill:#cccccc;stroke:#000000;stroke-width:0.264583px">
    <path
       d="m 7.5210313,4.5888162 c -0.028575,0.0381 -0.085725,0.1238248 -0.085725,0 0,-0.2762248 0.047625,-0.6953243 0.047625,-0.6953243 0,-0.047625 -0.0381,-0.066675 -0.1142999,-0.066675 -0.2571748,0.09525 -0.5714994,0.1714499 -1.2001488,0.2571748 -0.01905,0.05715 0,0.1047749 0.01905,0.1619248 0.4857745,0.047625 0.5714994,0.09525 0.5905494,0.6191244 0.00953,0.4952994 0.00953,1.5144734 0,1.9811979 -0.01905,0.7429492 -0.09525,0.7715242 -0.6381744,0.8191491 -0.05715,0.05715 -0.05715,0.1619249 0,0.2190748 0.3714747,-0.00953 0.5905494,-0.047625 0.981074,-0.047625 0.3524247,0 0.4857745,0.0381 0.8667741,0.047625 0.05715,-0.05715 0.05715,-0.1619248 0,-0.2190748 -0.4667245,-0.047625 -0.5238744,-0.0762 -0.5429244,-0.8191491 -0.01905,-0.4381495 -0.028575,-1.2477737 0,-1.7049732 0.00953,-0.1904998 0.0762,-0.2952747 0.1523998,-0.3809996 C 7.9401309,4.4268913 8.4449553,4.2268665 8.79738,4.2268665 c 0.1809748,0 0.3809996,0.1142999 0.4857745,0.3238497 0.09525,0.1809748 0.0762,0.4286245 0.09525,0.7048493 0.01905,0.4762495 0.01905,1.1144238 0,1.5906733 -0.0381,0.7429492 -0.085725,0.7715242 -0.5619744,0.8191491 -0.047625,0.05715 -0.047625,0.1619249 0,0.2190748 0.3809996,-0.00953 0.5524494,-0.047625 0.914399,-0.047625 0.371475,0 0.542924,0.0381 0.933449,0.047625 0.04763,-0.05715 0.04763,-0.1619248 0,-0.2190748 -0.504824,-0.047625 -0.581024,-0.0762 -0.609599,-0.8191491 -0.01905,-0.4667245 -0.01905,-0.990599 0,-1.4668485 0,-0.1428748 0.0095,-0.2762247 0.0095,-0.4095745 0,-0.3238497 -0.0381,-0.6000744 -0.1809751,-0.8096242 C 9.730829,3.9601668 9.4260293,3.8458669 9.1117047,3.8458669 c -0.4476746,0 -1.038224,0.1238249 -1.5906734,0.7429493 z"
       style="font-family:'Linux Libertine Display O';-inkscape-font-specification:'Linux Libertine Display O';stroke:none"
       id="path443" />
    <path
       d="m 11.292924,6.636689 c 0.0381,0.4476746 0.05715,0.8191492 0.05715,1.2001488 0.09525,-0.01905 0.180974,-0.028575 0.228599,-0.028575 0.06668,0 0.1143,0 0.180975,0.01905 0.24765,0.066675 0.4953,0.1047749 0.828674,0.1047749 0.504825,0 1.447799,-0.2571748 1.447799,-1.1525238 0,-0.6191244 -0.447675,-0.9239241 -1.066799,-1.1620488 -0.542925,-0.2095498 -0.942974,-0.3905246 -0.942974,-0.8858241 0,-0.3714746 0.3048,-0.6762743 0.676274,-0.6762743 0.333375,0 0.819149,0.1238249 0.933449,0.8953491 0.05715,0.047625 0.142875,0.047625 0.200025,-0.00953 0.02858,-0.3238497 0.0381,-0.6191244 0.04763,-0.9143991 -0.28575,-0.047625 -0.704849,-0.1809748 -1.181099,-0.1809748 -0.723899,0 -1.285873,0.3905246 -1.285873,1.019174 0,0.6667493 0.352424,0.933449 1.000123,1.2096737 0.74295,0.3238497 0.9525,0.5238745 0.9525,0.9143991 0,0.4476745 -0.466725,0.7334242 -0.8001,0.7334242 -0.352424,0 -0.600074,-0.1523999 -0.695324,-0.2476498 -0.219075,-0.2095497 -0.3429,-0.6191243 -0.40005,-0.8477241 -0.05715,-0.05715 -0.123824,-0.047625 -0.180974,0.00953 z"
       style="font-family:'Linux Libertine Display O';-inkscape-font-specification:'Linux Libertine Display O';stroke:none"
       id="path445" />
    <path
       d="m 15.502974,5.3698653 c 0.17145,-1.0286989 0.771524,-1.3049236 1.114424,-1.3049236 0.43815,0 0.857249,0.3714746 0.857249,1.1334738 0,0.085725 -0.0381,0.1238249 -0.13335,0.1238249 z m 2.514598,1.6192484 c -0.333375,0.3428996 -0.6477,0.5905493 -1.171574,0.5905493 -0.32385,0 -0.800099,-0.1904998 -1.085849,-0.6572243 C 15.579174,6.627164 15.474399,6.1699645 15.474399,5.64609 l 2.552698,-0.0381 c 0.104774,0 0.171449,-0.066675 0.171449,-0.1619248 0,-0.7619992 -0.314324,-1.6001984 -1.581148,-1.6001984 -0.866774,0 -1.866898,0.7715242 -1.866898,2.1526478 0,0.5048245 0.13335,1.0096489 0.428625,1.3525486 0.304799,0.3619496 0.781049,0.5810244 1.438273,0.5810244 0.685799,0 1.228724,-0.3143247 1.590673,-0.7905742 -0.02858,-0.09525 -0.08573,-0.1428749 -0.190499,-0.1523998 z"
       style="font-family:'Linux Libertine Display O';-inkscape-font-specification:'Linux Libertine Display O';stroke:none"
       id="path447" />
    <path
       d="m 19.446315,6.8557638 c -0.01905,0.7524742 -0.104775,0.7810492 -0.657224,0.8096241 -0.06668,0.066675 -0.05715,0.1714499 0,0.2190748 0.381,-0.00953 0.609599,-0.047625 1.000124,-0.047625 0.390525,0 0.619124,0.0381 1.009649,0.047625 0.04763,-0.047625 0.05715,-0.1523998 0,-0.2190748 -0.55245,-0.028575 -0.638174,-0.05715 -0.657224,-0.8096241 -0.0095,-0.3524246 -0.02858,-1.2287237 -0.02858,-2.1526478 0,-1.0477489 0.01905,-2.1526477 0.02858,-2.5717473 0.0095,-0.5905494 0.0381,-0.8572491 0.0381,-0.8572491 0,-0.066675 -0.0381,-0.085725 -0.123825,-0.085725 -0.2286,0.09525 -0.857249,0.2095498 -1.219199,0.2381247 -0.01905,0.0762 -0.02858,0.1238249 0.02858,0.1809749 0.476249,0.028575 0.542924,0.0762 0.581024,0.7429492 0.0095,0.3714746 0.01905,1.2287237 0.01905,2.1050228 0,0.990599 -0.0095,2.0097729 -0.01905,2.4002975 z"
       style="font-family:'Linux Libertine Display O';-inkscape-font-specification:'Linux Libertine Display O';stroke:none"
       id="path449" />
  </g>
  <g
     transform="matrix(0.25505194,0,0,0.186711,-35.317601,-71.235695)"
     id="g3773">
    <path
       style="opacity:1;fill:#a60d2c;fill-opacity:1;stroke:none;stroke-width:0.1;stroke-linecap:round;stroke-linejoin:round;stroke-miterlimit:4;stroke-dasharray:0.3, 0.3;stroke-dashoffset:0;stroke-opacity:1"
       id="path3769"
       d="m 145.46726,419.50762 c 0.2967,-1.09923 0.25368,-2.21892 0.10281,-3.33479 -0.25809,-1.35201 -0.76621,-2.68704 -1.64326,-3.7655 -0.16995,-0.20897 -0.36925,-0.39226 -0.55387,-0.58838 -0.20286,-0.14751 -0.3902,-0.31913 -0.60856,-0.44252 -0.20013,-0.1131 -0.41436,-0.20857 -0.63797,-0.26187 -0.21137,-0.0504 -0.43473,-0.0725 -0.65029,-0.0452 -0.48206,0.0611 -0.91832,0.32819 -1.23586,0.68795 -0.0343,0.0388 0.0294,0.0993 0.044,0.14892 -0.15669,0.33304 -0.34244,0.65388 -0.47006,0.9991 -0.69271,1.87379 -0.76392,3.99414 -0.6356,5.96487 0.0379,0.58243 0.12188,1.16096 0.18282,1.74144 0.42327,2.35147 0.94519,5.0606 2.64411,6.87713 0.23043,0.24638 0.51638,0.43424 0.77456,0.65136 0.27071,0.11355 0.52543,0.2775 0.81212,0.34065 0.97581,0.21495 1.80357,-0.27567 2.52522,-0.86745 0.0569,-0.0466 0.0755,-0.12636 0.11599,-0.18781 0.2605,-0.39548 0.52458,-0.78858 0.78687,-1.18287 0.24182,-0.49946 0.51241,-0.98598 0.72546,-1.49838 0.52739,-1.26837 0.91467,-2.62392 1.23879,-3.95457 0.64741,-2.65783 1.05204,-5.3642 1.47778,-8.06339 0.81842,-6.00389 1.5242,-12.02079 2.44812,-18.01 0.55342,-3.48116 1.23101,-6.94097 2.01393,-10.37737 0.17403,-0.67533 0.55239,-2.90772 1.60705,-2.80642 0.0575,0.0534 0.12896,0.0949 0.17261,0.16013 0.5325,0.79559 0.3907,3.2075 0.36994,4.0487 -0.38284,5.45288 -0.81941,10.90067 -1.14269,16.35798 -0.34745,5.93607 -0.54359,11.87916 -0.35708,17.82352 0.0922,1.87849 0.20686,3.76233 0.51795,5.61984 0.10824,0.64627 0.27118,1.49873 0.54362,2.12238 0.0823,0.18829 0.2159,0.34966 0.32385,0.52449 0.41316,0.29599 0.18744,0.25522 0.67673,0.12461 0.002,0.002 -0.0225,0.0337 -0.0247,0.0319 v 0 c -0.85464,0.55938 -0.4036,0.40125 -1.33394,0.5259 -0.1864,-0.11739 -0.40969,-0.1904 -0.5592,-0.35218 -0.43698,-0.47286 -0.6991,-1.32461 -0.84432,-1.90187 -0.45358,-1.80296 -0.53443,-3.67975 -0.66218,-5.5241 -0.19395,-5.95799 -0.0142,-11.91668 0.37923,-17.86444 0.36594,-5.51841 0.86809,-11.02388 1.35423,-16.53254 0.0727,-1.19859 0.10746,-1.5154 0.12543,-2.63044 0.009,-0.56517 0.0571,-1.2272 -0.22833,-1.74332 -0.32501,-0.0347 -0.24776,-0.005 0.45779,-0.58063 0.0777,-0.0634 -0.11147,0.16779 -0.15384,0.25875 -0.26247,0.56333 -0.37368,1.18817 -0.54034,1.78138 -0.78356,3.42556 -1.41198,6.88609 -1.99208,10.35114 -0.92475,5.98252 -1.6443,11.99144 -2.42853,17.99344 -0.57436,3.95562 -1.11291,8.26563 -2.63609,11.99057 -0.21081,0.51555 -0.47806,1.00618 -0.71709,1.50927 -0.26047,0.40003 -0.4761,0.83314 -0.78142,1.20008 -0.95346,1.14589 -2.39726,2.80751 -4.13066,2.3786 -0.29319,-0.0725 -0.55284,-0.24347 -0.82925,-0.36521 -0.2614,-0.22407 -0.55093,-0.41898 -0.78418,-0.67222 -1.70023,-1.84593 -2.2317,-4.57218 -2.64003,-6.95131 -0.28454,-2.98771 -0.45128,-6.03861 0.93702,-8.80075 0.43364,-0.50759 1.05919,-1.44333 1.76813,-1.80125 0.93708,-0.47309 1.87484,0.003 2.60122,0.60732 0.18733,0.19887 0.38836,0.38568 0.56197,0.59663 0.8926,1.08459 1.39564,2.42088 1.68841,3.77954 0.16903,1.12365 0.22359,2.25635 -0.0856,3.36437 0.0385,0.0474 -0.63225,0.59225 -0.67077,0.54482 z"
       inkscape:connector-curvature="0" />
    <path
       style="opacity:1;fill:#a60d2c;fill-opacity:1;stroke:none;stroke-width:0.1;stroke-linecap:round;stroke-linejoin:round;stroke-miterlimit:4;stroke-dasharray:0.3, 0.3;stroke-dashoffset:0;stroke-opacity:1"
       id="path3771"
       d="m 150.01889,406.54121 c -0.8571,0.28519 -1.7377,0.4371 -2.63982,0.39977 -1.00818,-0.12575 -1.5836,-0.64044 -2.10613,-1.47167 -0.30221,-0.62274 -0.59295,-1.42251 -0.20408,-2.08198 0.0746,-0.12657 0.18724,-0.22648 0.28086,-0.33971 0.45352,-0.38596 0.86841,-0.82255 1.36055,-1.15787 0.24293,-0.16553 1.14333,-0.28431 1.38291,-0.3055 0.95354,-0.0843 1.9177,-0.004 2.86983,0.0504 1.72836,0.1073 3.4809,0.32539 5.20547,0.0458 0.30457,-0.0494 0.60295,-0.1314 0.90443,-0.1971 0.66978,-0.22837 0.91296,-0.2707 1.51473,-0.62835 0.20575,-0.12229 0.36747,-0.31742 0.5861,-0.41485 0.11627,-0.0518 -0.34392,0.37439 -0.26728,0.27276 0.38684,-0.51295 0.81872,-0.99049 1.21616,-1.49527 0.09,-0.18184 0.17995,-0.36369 0.26992,-0.54553 -0.002,-0.002 0.0301,-0.0271 0.0319,-0.0248 v 0 c -0.0899,0.18192 -0.17982,0.36385 -0.26973,0.54577 -0.0251,0.13005 -0.0224,0.26872 -0.0754,0.39014 -0.0794,0.18219 -0.18292,0.35774 -0.31514,0.50611 -1.05894,1.18828 -2.1179,2.15803 -3.66801,2.58708 -0.306,0.0628 -0.60913,0.14175 -0.91801,0.18842 -1.71983,0.25985 -3.46319,0.0349 -5.18092,-0.11563 -0.92666,-0.079 -1.85578,-0.17271 -2.78693,-0.10169 -0.24071,0.0184 -0.48179,0.0452 -0.71791,0.0954 -0.19596,0.0417 -0.52816,0.37461 -0.57364,0.17949 -0.0597,-0.25598 0.31164,-0.42336 0.46746,-0.63504 -0.10582,0.10478 -0.22951,0.19418 -0.31746,0.31435 -0.44738,0.61125 -0.18598,1.39954 0.10237,2.00975 0.49619,0.81218 1.02723,1.29585 2.01001,1.39674 0.86974,0.0233 1.72545,-0.1066 2.55802,-0.36261 0.0633,0.0509 -0.65697,0.94645 -0.7203,0.89551 z"
       inkscape:connector-curvature="0" />
  </g>
  <text
     xml:space="preserve"
     style="font-size:10.5835px;line-height:125%;font-family:sans-serif;-inkscape-font-specification:sans-serif;text-align:center;letter-spacing:0px;word-spacing:0px;writing-mode:lr-tb;text-anchor:middle;fill:none;stroke:#000000;stroke-width:0.264587px;stroke-linecap:butt;stroke-linejoin:miter;stroke-opacity:1"
     x="-4.6006746"
     y="2.2093041"
     id="text382"><tspan
       sodipodi:role="line"
       id="tspan380"
       style="stroke-width:0.264587px"
       x="-4.6006746"
       y="2.2093041" /></text>
</svg>
